<svg xmlns="http://www.w3.org/2000/svg" xmlns:xlink="http://www.w3.org/1999/xlink" version="1.1" width="256" height="256" viewBox="0 0 256 256" xml:space="preserve">

<defs>
</defs>
<g style="stroke: none; stroke-width: 0; stroke-dasharray: none; stroke-linecap: butt; stroke-linejoin: miter; stroke-miterlimit: 10; fill: none; fill-rule: nonzero; opacity: 1;" transform="translate(1.4065934065934016 1.4065934065934016) scale(2.81 2.81)" >
	<path d="M 87.002 64.055 L 18.153 82.503 c -2.157 0.578 -4.375 -0.702 -4.953 -2.86 L 0.139 30.898 c -0.578 -2.157 0.702 -4.375 2.86 -4.953 L 71.847 7.497 c 2.157 -0.578 4.375 0.702 4.953 2.86 l 13.062 48.746 C 90.439 61.26 89.159 63.477 87.002 64.055 z" style="stroke: none; stroke-width: 1; stroke-dasharray: none; stroke-linecap: butt; stroke-linejoin: miter; stroke-miterlimit: 10; fill: rgb(7,101,250); fill-rule: nonzero; opacity: 1;" transform=" matrix(1 0 0 1 0 0) " stroke-linecap="round" />
	<path d="M 80.639 74.277 H 9.361 c -2.233 0 -4.044 -1.811 -4.044 -4.044 V 19.767 c 0 -2.233 1.811 -4.044 4.044 -4.044 h 71.277 c 2.233 0 4.044 1.811 4.044 4.044 v 50.466 C 84.683 72.466 82.872 74.277 80.639 74.277 z" style="stroke: none; stroke-width: 1; stroke-dasharray: none; stroke-linecap: butt; stroke-linejoin: miter; stroke-miterlimit: 10; fill: rgb(4,164,235); fill-rule: nonzero; opacity: 1;" transform=" matrix(1 0 0 1 0 0) " stroke-linecap="round" />
	<path d="M 80.613 66.206 c 0 2.004 -1.625 3.629 -3.629 3.629 H 13.016 c -2.004 0 -3.629 -1.625 -3.629 -3.629 l 13.457 -16.045 c 2.427 -2.894 6.83 -3.04 9.444 -0.313 l 0.849 0.886 c 2.637 2.752 7.088 2.574 9.498 -0.379 l 6.802 -8.334 c 2.477 -3.035 7.085 -3.123 9.676 -0.186 L 80.613 66.206 z" style="stroke: none; stroke-width: 1; stroke-dasharray: none; stroke-linecap: butt; stroke-linejoin: miter; stroke-miterlimit: 10; fill: rgb(7,101,250); fill-rule: nonzero; opacity: 1;" transform=" matrix(1 0 0 1 0 0) " stroke-linecap="round" />
	<circle cx="37.482" cy="34.432" r="6.262" style="stroke: none; stroke-width: 1; stroke-dasharray: none; stroke-linecap: butt; stroke-linejoin: miter; stroke-miterlimit: 10; fill: rgb(255,201,82); fill-rule: nonzero; opacity: 1;" transform="  matrix(1 0 0 1 0 0) "/>
</g>
</svg>